:SAMPLES-PER-SECOND 30
:FULLY-SPECIFIED
:DEGREES
53
root  -2.29715 40.8985 0.331783 -163.174 -88.5197 161.953
RightUpLeg  3.34565 -1.62951 -1.8883
RightLeg  0.267439 -18.131 -0.417804
RightFoot  -1.31989 -0.331884 3.64534
RightToes  -3.11842e-008 1.75238e-005 3.56266e-009
Spine  -8.57568 -11.0796 -18.9215
Spine1  9.75359 -18.7966 34.3394
HEad  -16.2304 26.8738 -25.086
LeftShoulder1  3.07372 -2.40896 -45.3164
LeftArm  -48.5258 30.1202 -31.2136
LeftForeArm  128.843 -79.9865 -111.865
LeftHand  -0.365117 -5.92632 4.07757
RightShoulder  0.937202 29.4316 -6.4466
RightArm  -44.4177 3.58034 41.142
RightForeArm  31.7694 70.2908 29.6023
RightHand  -1.30363 9.52981 -10.4876
LeftUpLeg  2.90314 0.715715 1.3138
LeftLeg  -0.0705116 14.5987 -0.434304
LeftFoot  -1.20184 0.137987 -1.47046
LeftToes  4.7713e-008 1.46693e-008 1.32589e-009
54
root  -2.23572 40.8954 0.316212 -137.52 -89.1118 135.904
RightUpLeg  3.69565 -1.80418 -1.96266
RightLeg  0.436023 -18.6378 -0.418827
RightFoot  -1.37518 -0.333371 3.66455
RightToes  -3.11842e-008 1.75238e-005 3.56266e-009
Spine  -8.302 -11.3137 -18.9471
Spine1  9.50934 -18.8689 33.9362
HEad  -15.1161 27.8613 -25.8181
LeftShoulder1  3.52663 -3.19037 -45.9356
LeftArm  -43.6629 23.3583 -30.0605
LeftForeArm  113.831 -80.6693 -96.2565
LeftHand  -0.432833 -5.48883 4.93626
RightShoulder  1.2822 30.0536 -5.34088
RightArm  -43.5708 7.52304 41.6823
RightForeArm  29.6223 69.4267 28.2895
RightHand  -1.23764 9.4437 -10.0319
LeftUpLeg  3.08446 0.71749 1.30322
LeftLeg  0.083032 13.8982 -0.378835
LeftFoot  -1.25097 0.168713 -1.82327
LeftToes  4.7713e-008 1.46693e-008 1.32589e-009
55
root  -2.15606 40.8902 0.302685 -70.2417 -89.4065 68.2438
RightUpLeg  4.05642 -2.06711 -2.0906
RightLeg  0.553233 -19.221 -0.323357
RightFoot  -1.45703 -0.331146 3.62964
RightToes  -3.11842e-008 1.75238e-005 3.56266e-009
Spine  -7.92146 -11.4323 -19.1481
Spine1  9.11185 -18.8577 33.842
HEad  -13.6314 28.1608 -26.1743
LeftShoulder1  4.18076 -4.26876 -46.9474
LeftArm  -38.84 15.2499 -27.9784
LeftForeArm  92.5783 -80.3851 -74.2559
LeftHand  -0.495928 -5.22785 5.73249
RightShoulder  1.41946 30.2394 -4.9069
RightArm  -42.472 11.7317 41.0952
RightForeArm  27.6472 67.8322 25.8081
RightHand  -1.22302 9.72098 -9.74658
LeftUpLeg  3.11751 0.595861 1.21782
LeftLeg  0.388728 13.1179 -0.190701
LeftFoot  -1.3229 0.191836 -2.09868
LeftToes  4.7713e-008 1.46693e-008 1.32589e-009
56
root  -2.09002 40.8817 0.28898 -37.8878 -88.7021 35.3586
RightUpLeg  4.44495 -2.38131 -2.35161
RightLeg  0.973126 -19.6325 -0.427744
RightFoot  -1.66377 -0.342163 3.80479
RightToes  -3.11842e-008 1.75238e-005 3.56266e-009
Spine  -7.47424 -11.2478 -19.2768
Spine1  8.70459 -18.447 33.4188
HEad  -12.0345 28.6881 -26.1668
LeftShoulder1  4.81457 -5.31386 -47.6882
LeftArm  -34.6544 4.57369 -25.5974
LeftForeArm  69.8552 -77.7058 -47.4066
LeftHand  -0.436762 -5.67054 4.89637
RightShoulder  1.34732 30.5065 -5.18635
RightArm  -42.3871 15.2141 39.8008
RightForeArm  26.6462 66.9524 24.6283
RightHand  -1.1571 9.7903 -9.20561
LeftUpLeg  3.36781 0.512986 1.04106
LeftLeg  0.664894 12.4288 -0.148068
LeftFoot  -1.45106 0.201766 -2.23406
LeftToes  4.7713e-008 1.46693e-008 1.32589e-009
57
root  -2.00345 40.8658 0.281658 -24.104 -87.6163 21.1227
RightUpLeg  4.75388 -2.72761 -2.57874
RightLeg  1.45546 -20.3835 -0.509813
RightFoot  -1.8682 -0.353479 3.99025
RightToes  -3.11842e-008 1.75238e-005 3.56266e-009
Spine  -7.31561 -11.1458 -19.2283
Spine1  8.83055 -18.1057 32.4191
HEad  -10.4131 28.3801 -25.4691
LeftShoulder1  5.39046 -6.28975 -48.0744
LeftArm  -30.2465 -8.82125 -23.0105
LeftForeArm  52.064 -71.1677 -27.8631
LeftHand  -0.537936 -5.4528 6.08588
RightShoulder  1.18748 30.545 -5.72203
RightArm  -43.5384 18.3179 37.8639
RightForeArm  24.8766 66.7393 24.5878
RightHand  -1.12138 9.78047 -8.94032
LeftUpLeg  3.25802 0.395761 0.892593
LeftLeg  1.36445 11.4254 0.0170642
LeftFoot  -1.64894 0.212473 -2.40802
LeftToes  4.7713e-008 1.46693e-008 1.32589e-009
58
root  -1.93746 40.8481 0.276728 -15.9965 -86.4506 12.6329
RightUpLeg  5.16142 -2.90347 -2.53581
RightLeg  1.61357 -21.4488 -0.484052
RightFoot  -1.95219 -0.34967 3.94767
RightToes  -3.11842e-008 1.75238e-005 3.56266e-009
Spine  -6.09738 -11.3038 -19.4229
Spine1  7.59155 -17.9613 32.1446
HEad  -9.05854 29.4373 -25.6586
LeftShoulder1  5.82881 -7.01505 -48.4177
LeftArm  -26.4983 -22.7548 -21.025
LeftForeArm  39.8303 -62.4212 -17.6229
LeftHand  -0.589144 -4.79412 7.00718
RightShoulder  0.944872 30.9007 -6.56125
RightArm  -45.3481 21.4305 36.152
RightForeArm  24.7949 67.6164 25.9256
RightHand  -1.10237 9.644 -8.8748
LeftUpLeg  2.97565 0.415535 0.989714
LeftLeg  2.25922 10.1749 0.190401
LeftFoot  -1.93751 0.214023 -2.45531
LeftToes  4.7713e-008 1.46693e-008 1.32589e-009
59
root  -1.90689 40.8373 0.275472 -10.8937 -85.0328 7.33467
RightUpLeg  5.51188 -3.03935 -2.47442
RightLeg  1.6396 -22.7486 -0.412915
RightFoot  -2.04382 -0.361326 4.15299
RightToes  -3.11842e-008 1.75238e-005 3.56266e-009
Spine  -4.09867 -12.3038 -20.1355
Spine1  5.68412 -18.6936 32.3619
HEad  -8.61309 32.558 -26.6139
LeftShoulder1  5.74322 -7.0127 -47.7078
LeftArm  -24.9503 -33.9909 -20.3554
LeftForeArm  37.0622 -55.8856 -13.3473
LeftHand  -0.610925 -5.17256 7.00882
RightShoulder  0.485862 31.5869 -8.09892
RightArm  -47.5091 25.5187 35.8721
RightForeArm  27.7886 69.4512 28.6322
RightHand  -1.10149 9.17584 -9.13336
LeftUpLeg  2.63936 0.412689 1.09398
LeftLeg  2.89547 8.65495 0.279199
LeftFoot  -2.09603 0.21418 -2.48594
LeftToes  4.7713e-008 1.46693e-008 1.32589e-009
60
root  -1.90213 40.8323 0.286607 -9.10276 -84.3547 5.70783
RightUpLeg  5.39141 -2.99421 -2.37565
RightLeg  1.6896 -23.5191 -0.439229
RightFoot  -2.06826 -0.372879 4.36564
RightToes  -3.11842e-008 1.75238e-005 3.56266e-009
Spine  -2.01552 -13.3485 -21.2627
Spine1  3.37097 -19.5924 33.6332
HEad  -9.52755 34.5831 -28.3001
LeftShoulder1  5.4261 -6.66874 -46.558
LeftArm  -24.1555 -42.4997 -20.281
LeftForeArm  37.7915 -52.4378 -11.5304
LeftHand  -0.764362 -5.2348 8.65553
RightShoulder  -0.370284 32.2518 -10.8396
RightArm  -49.6196 29.0813 36.2997
RightForeArm  33.911 72.3306 34.2128
RightHand  -1.13633 10.0865 -8.8801
LeftUpLeg  2.22672 0.431732 1.17866
LeftLeg  3.15719 7.91016 0.254222
LeftFoot  -2.12663 0.210869 -2.45687
LeftToes  4.7713e-008 1.46693e-008 1.32589e-009
61
root  -1.92182 40.8373 0.295791 -7.65498 -84.3414 4.63511
RightUpLeg  4.95172 -2.81598 -2.2076
RightLeg  1.81172 -23.8018 -0.516967
RightFoot  -2.06548 -0.377384 4.47889
RightToes  -3.11842e-008 1.75238e-005 3.56266e-009
Spine  -0.418433 -14.3009 -22.2051
Spine1  1.57474 -20.4584 34.8217
HEad  -11.9365 37.7698 -31.3556
LeftShoulder1  4.8573 -5.88885 -45.1117
LeftArm  -23.7261 -49.2141 -19.7092
LeftForeArm  37.8057 -52.2458 -11.4661
LeftHand  -0.823913 -5.64292 8.96951
RightShoulder  -1.1795 32.887 -13.3174
RightArm  -51.5568 32.2144 36.033
RightForeArm  47.7258 76.33 47.3157
RightHand  -1.26305 10.7821 -9.43421
LeftUpLeg  1.84777 0.524075 1.31715
LeftLeg  3.12964 7.77401 0.18398
LeftFoot  -2.07275 0.200719 -2.31855
LeftToes  4.7713e-008 1.46693e-008 1.32589e-009
62
root  -1.96055 40.8367 0.302647 -8.33926 -84.8143 5.80461
RightUpLeg  4.123 -2.68391 -2.23306
RightLeg  2.46827 -23.4594 -0.805086
RightFoot  -2.28524 -0.375914 4.5466
RightToes  -3.11842e-008 1.75238e-005 3.56266e-009
Spine  1.25756 -14.8623 -23.1863
Spine1  -0.579759 -20.8372 36.1871
HEad  -14.1159 40.1302 -34.0577
LeftShoulder1  4.53636 -5.35266 -44.6503
LeftArm  -24.3184 -54.7363 -18.1231
LeftForeArm  40.5538 -54.3835 -12.3049
LeftHand  -0.965547 -5.86893 10.2551
RightShoulder  -1.93907 33.8488 -15.5159
RightArm  -53.7642 33.7922 34.5758
RightForeArm  78.019 79.6712 76.7076
RightHand  -1.21491 10.8062 -9.07489
LeftUpLeg  1.50959 0.579568 1.30623
LeftLeg  2.98055 8.16096 0.0641462
LeftFoot  -1.98181 0.192398 -2.21399
LeftToes  4.7713e-008 1.46693e-008 1.32589e-009
63
root  -2.01075 40.8298 0.31204 -9.05045 -85.3216 6.90747
RightUpLeg  3.41377 -2.39989 -2.13105
RightLeg  3.09685 -23.2182 -1.25372
RightFoot  -2.46414 -0.377709 4.64586
RightToes  -3.11842e-008 1.75238e-005 3.56266e-009
Spine  3.24156 -15.2196 -23.8547
Spine1  -3.18012 -20.7937 37.0587
HEad  -16.7772 42.3688 -36.9605
LeftShoulder1  4.25109 -4.88048 -44.1766
LeftArm  -24.3696 -59.2941 -16.7476
LeftForeArm  42.717 -57.9944 -14.1897
LeftHand  -1.06636 -5.97778 11.1968
RightShoulder  -2.4241 34.2067 -16.9006
RightArm  -55.5246 34.634 33.1323
RightForeArm  118.366 78.9664 115.636
RightHand  -1.18344 10.7913 -8.83812
LeftUpLeg  1.25753 0.571983 1.27258
LeftLeg  2.91171 8.67976 0.0356766
LeftFoot  -1.9728 0.1798 -2.04265
LeftToes  4.7713e-008 1.46693e-008 1.32589e-009
64
root  -2.0824 40.8253 0.304772 -9.37329 -85.644 7.41638
RightUpLeg  3.13479 -2.33425 -2.10857
RightLeg  3.42865 -22.9971 -1.36514
RightFoot  -2.67732 -0.372968 4.67846
RightToes  -3.11842e-008 1.75238e-005 3.56266e-009
Spine  5.16594 -15.8524 -24.8035
Spine1  -5.21163 -21.2179 38.0678
HEad  -19.2824 44.1387 -39.7647
LeftShoulder1  3.85922 -4.15901 -43.844
LeftArm  -25.1778 -63.0491 -14.5151
LeftForeArm  45.6875 -62.2735 -16.9587
LeftHand  -1.16398 -5.75193 12.3899
RightShoulder  -3.14874 34.416 -18.9928
RightArm  -57.3986 35.2107 32.2944
RightForeArm  145.938 74.552 141.035
RightHand  -1.5622 11.9403 -10.8414
LeftUpLeg  1.25417 0.583586 1.28393
LeftLeg  2.81067 8.98416 0.0606848
LeftFoot  -1.97716 0.175212 -2.00019
LeftToes  4.7713e-008 1.46693e-008 1.32589e-009
65
root  -2.14599 40.8213 0.277968 -9.53662 -85.8341 7.73233
RightUpLeg  2.90483 -2.25836 -2.03218
RightLeg  3.73799 -22.9158 -1.49378
RightFoot  -2.87163 -0.370723 4.73929
RightToes  -3.11842e-008 1.75238e-005 3.56266e-009
Spine  7.92825 -16.6186 -26.2849
Spine1  -8.24469 -21.6641 39.9428
HEad  -22.0938 46.5375 -42.2365
LeftShoulder1  3.33244 -3.17039 -43.4558
LeftArm  -25.7917 -65.461 -13.7786
LeftForeArm  52.159 -66.6826 -20.6779
LeftHand  -1.42985 -6.65633 14.0522
RightShoulder  -3.81603 35.3041 -20.6931
RightArm  -58.7195 34.5625 31.8437
RightForeArm  158.963 68.8415 153.565
RightHand  -1.77218 11.5193 -12.4976
LeftUpLeg  1.20277 0.653075 1.35094
LeftLeg  2.82573 9.12204 0.0485447
LeftFoot  -1.95751 0.162984 -1.8478
LeftToes  4.7713e-008 1.46693e-008 1.32589e-009
66
root  -2.21494 40.8029 0.235629 -10.4411 -86.3443 8.63129
RightUpLeg  2.581 -1.99485 -1.85141
RightLeg  4.56182 -22.6315 -1.96846
RightFoot  -3.25236 -0.3789 5.04111
RightToes  -3.11842e-008 1.75238e-005 3.56266e-009
Spine  10.7996 -17.1356 -28.0343
Spine1  -11.3419 -21.8647 42.1682
HEad  -22.9478 48.6917 -43.6707
LeftShoulder1  3.11783 -2.70025 -43.7324
LeftArm  -26.7131 -66.0886 -11.4492
LeftForeArm  63.0608 -72.1682 -27.7367
LeftHand  -1.6807 -7.18994 15.7593
RightShoulder  -4.39355 35.7562 -22.1986
RightArm  -58.8386 33.5841 32.4624
RightForeArm  162.629 63.9306 159.154
RightHand  -1.8101 12.1278 -12.3332
LeftUpLeg  1.27307 0.818892 1.46382
LeftLeg  3.04312 9.48776 0.0598239
LeftFoot  -2.12061 0.15075 -1.7088
LeftToes  4.7713e-008 1.46693e-008 1.32589e-009
